<?xml version="1.0" encoding="utf-8"?>
<!-- Generator: Adobe Illustrator 19.2.1, SVG Export Plug-In . SVG Version: 6.00 Build 0)  -->
<svg version="1.1" id="Calque_1" xmlns="http://www.w3.org/2000/svg" xmlns:xlink="http://www.w3.org/1999/xlink" x="0px" y="0px"
	 viewBox="0 0 98.8 22.1" style="enable-background:new 0 0 98.8 22.1;" xml:space="preserve">
<metadata><?xpacket begin="﻿" id="W5M0MpCehiHzreSzNTczkc9d"?>
<x:xmpmeta xmlns:x="adobe:ns:meta/" x:xmptk="Adobe XMP Core 5.6-c111 79.158366, 2015/09/25-01:12:00        ">
   <rdf:RDF xmlns:rdf="http://www.w3.org/1999/02/22-rdf-syntax-ns#">
      <rdf:Description rdf:about=""/>
   </rdf:RDF>
</x:xmpmeta>
                                                                                                    
                                                                                                    
                                                                                                    
                                                                                                    
                                                                                                    
                                                                                                    
                                                                                                    
                                                                                                    
                                                                                                    
                                                                                                    
                                                                                                    
                                                                                                    
                                                                                                    
                                                                                                    
                                                                                                    
                                                                                                    
                                                                                                    
                                                                                                    
                                                                                                    
                                                                                                    
                           
<?xpacket end="w"?></metadata>
<style type="text/css">
	.st0{opacity:0.1;fill:#00E0BC;}
	.st1{opacity:0.28;fill:#00E0BC;}
	.st2{opacity:0.46;fill:#00E0BC;}
	.st3{opacity:0.64;fill:#00E0BC;}
	.st4{opacity:0.82;fill:#00E0BC;}
	.st5{fill:#00E0BC;}
</style>
<path class="st0" d="M7.2,19.4c0,1.5-1.2,2.6-2.7,2.7v0H2.8c-1.5,0-2.8-1.2-2.8-2.7V0.6C0,0.3,0.3,0,0.7,0h1.6v19
	c0,0.7,0.5,1.2,1.2,1.2h0.3C4.4,20.2,5,19.7,5,19V0h2.3V19.4z"/>
<path class="st1" d="M26.1,22h-1c-1.2,0-1.4-1-1.5-1.4L21.1,9.7V22h-2.3V0h1c1.3,0,1.5,0.6,1.6,1.2l2.3,11.4V0h2.3V22z"/>
<path class="st2" d="M42.2,22h-1h-0.2c-1.1,0-1.3-1.3-1.3-1.5L36.6,0h1.7c0.2,0,0.5,0.1,0.7,0.8l2.1,13.8L43.3,0h2.3L42.2,22z"/>
<path class="st3" d="M64.1,19.8c-0.3,0.6-0.6,1.4-0.7,1.6c-0.2,0.3-0.5,0.6-1.2,0.6h-5V0.6c0-0.3,0.3-0.6,0.7-0.6h5.9l-0.8,1.6
	c-0.1,0.3-0.5,0.6-1.2,0.6h-1.8c-0.3,0-0.5,0.2-0.5,0.5v6.5h3.4c-0.3,0.6-0.6,1.5-0.7,1.7c-0.2,0.3-0.5,0.6-1.2,0.6h-0.9
	c-0.3,0-0.5,0.3-0.5,0.5v7.6H64.1z"/>
<path class="st4" d="M77.2,0c0.7,0,0.9,0.5,0.9,0.9V22h-1.6c-0.5,0-0.6-0.3-0.7-0.5V0H77.2z"/>
<path class="st5" d="M98.8,19.8c-0.3,0.6-0.6,1.4-0.7,1.6c-0.2,0.3-0.5,0.6-1.2,0.6h-5.4V0H93c0.4,0,0.7,0.3,0.7,0.7v19.1H98.8z"/>
</svg>
